<?xml version="1.0" encoding="UTF-8" standalone="no"?>
<svg
   xmlns:dc="http://purl.org/dc/elements/1.1/"
   xmlns:cc="http://creativecommons.org/ns#"
   xmlns:rdf="http://www.w3.org/1999/02/22-rdf-syntax-ns#"
   xmlns:svg="http://www.w3.org/2000/svg"
   xmlns="http://www.w3.org/2000/svg"
   xmlns:sodipodi="http://sodipodi.sourceforge.net/DTD/sodipodi-0.dtd"
   xmlns:inkscape="http://www.inkscape.org/namespaces/inkscape"
   id="SVGRoot"
   version="1.1"
   viewBox="0 0 1920 1080"
   height="1080px"
   width="1920px"
   sodipodi:docname="tanda_tanya.svg"
   inkscape:version="0.92.2 (5c3e80d, 2017-08-06)">
  <sodipodi:namedview
     pagecolor="#ffffff"
     bordercolor="#666666"
     borderopacity="1"
     objecttolerance="10"
     gridtolerance="10"
     guidetolerance="10"
     inkscape:pageopacity="0"
     inkscape:pageshadow="2"
     inkscape:window-width="1366"
     inkscape:window-height="745"
     id="namedview3376"
     showgrid="false"
     inkscape:zoom="0.41837151"
     inkscape:cx="1002.9194"
     inkscape:cy="629.19186"
     inkscape:window-x="-8"
     inkscape:window-y="-8"
     inkscape:window-maximized="1"
     inkscape:current-layer="SVGRoot" />
  <defs
     id="defs1366">
    <marker
       orient="auto"
       refY="0.0"
       refX="0.0"
       id="marker3170"
       style="overflow:visible">
      <path
         id="path3168"
         style="fill-rule:evenodd;stroke-width:0.625;stroke-linejoin:round;stroke:#262a3e;stroke-opacity:1;fill:#4d4d4d;fill-opacity:1"
         d="M 8.7185878,4.0337352 L -2.2072895,0.016013256 L 8.7185884,-4.0017078 C 6.9730900,-1.6296469 6.9831476,1.6157441 8.7185878,4.0337352 z "
         transform="scale(1.1) translate(1,0)" />
    </marker>
    <marker
       orient="auto"
       refY="0.0"
       refX="0.0"
       id="marker3160"
       style="overflow:visible">
      <path
         id="path3158"
         style="fill-rule:evenodd;stroke-width:0.625;stroke-linejoin:round;stroke:#262a3e;stroke-opacity:1;fill:#4d4d4d;fill-opacity:1"
         d="M 8.7185878,4.0337352 L -2.2072895,0.016013256 L 8.7185884,-4.0017078 C 6.9730900,-1.6296469 6.9831476,1.6157441 8.7185878,4.0337352 z "
         transform="scale(1.1) translate(1,0)" />
    </marker>
    <marker
       orient="auto"
       refY="0.0"
       refX="0.0"
       id="marker3150"
       style="overflow:visible">
      <path
         id="path3148"
         style="fill-rule:evenodd;stroke-width:0.625;stroke-linejoin:round;stroke:#262a3e;stroke-opacity:1;fill:#4d4d4d;fill-opacity:1"
         d="M 8.7185878,4.0337352 L -2.2072895,0.016013256 L 8.7185884,-4.0017078 C 6.9730900,-1.6296469 6.9831476,1.6157441 8.7185878,4.0337352 z "
         transform="scale(1.1) translate(1,0)" />
    </marker>
    <marker
       orient="auto"
       refY="0.0"
       refX="0.0"
       id="marker3140"
       style="overflow:visible">
      <path
         id="path3138"
         style="fill-rule:evenodd;stroke-width:0.625;stroke-linejoin:round;stroke:#262a3e;stroke-opacity:1;fill:#4d4d4d;fill-opacity:1"
         d="M 8.7185878,4.0337352 L -2.2072895,0.016013256 L 8.7185884,-4.0017078 C 6.9730900,-1.6296469 6.9831476,1.6157441 8.7185878,4.0337352 z "
         transform="scale(1.1) translate(1,0)" />
    </marker>
    <marker
       orient="auto"
       refY="0.0"
       refX="0.0"
       id="marker3130"
       style="overflow:visible">
      <path
         id="path3128"
         style="fill-rule:evenodd;stroke-width:0.625;stroke-linejoin:round;stroke:#262a3e;stroke-opacity:1;fill:#4d4d4d;fill-opacity:1"
         d="M 8.7185878,4.0337352 L -2.2072895,0.016013256 L 8.7185884,-4.0017078 C 6.9730900,-1.6296469 6.9831476,1.6157441 8.7185878,4.0337352 z "
         transform="scale(1.1) translate(1,0)" />
    </marker>
    <marker
       orient="auto"
       refY="0.0"
       refX="0.0"
       id="marker3120"
       style="overflow:visible">
      <path
         id="path3118"
         style="fill-rule:evenodd;stroke-width:0.625;stroke-linejoin:round;stroke:#262a3e;stroke-opacity:1;fill:#4d4d4d;fill-opacity:1"
         d="M 8.7185878,4.0337352 L -2.2072895,0.016013256 L 8.7185884,-4.0017078 C 6.9730900,-1.6296469 6.9831476,1.6157441 8.7185878,4.0337352 z "
         transform="scale(1.1) translate(1,0)" />
    </marker>
    <marker
       orient="auto"
       refY="0.0"
       refX="0.0"
       id="marker3110"
       style="overflow:visible">
      <path
         id="path3108"
         style="fill-rule:evenodd;stroke-width:0.625;stroke-linejoin:round;stroke:#262a3e;stroke-opacity:1;fill:#4d4d4d;fill-opacity:1"
         d="M 8.7185878,4.0337352 L -2.2072895,0.016013256 L 8.7185884,-4.0017078 C 6.9730900,-1.6296469 6.9831476,1.6157441 8.7185878,4.0337352 z "
         transform="scale(1.1) translate(1,0)" />
    </marker>
    <marker
       orient="auto"
       refY="0.0"
       refX="0.0"
       id="marker3100"
       style="overflow:visible">
      <path
         id="path3098"
         style="fill-rule:evenodd;stroke-width:0.625;stroke-linejoin:round;stroke:#262a3e;stroke-opacity:1;fill:#4d4d4d;fill-opacity:1"
         d="M 8.7185878,4.0337352 L -2.2072895,0.016013256 L 8.7185884,-4.0017078 C 6.9730900,-1.6296469 6.9831476,1.6157441 8.7185878,4.0337352 z "
         transform="scale(1.1) translate(1,0)" />
    </marker>
    <marker
       orient="auto"
       refY="0.0"
       refX="0.0"
       id="marker3090"
       style="overflow:visible">
      <path
         id="path3088"
         style="fill-rule:evenodd;stroke-width:0.625;stroke-linejoin:round;stroke:#262a3e;stroke-opacity:1;fill:#4d4d4d;fill-opacity:1"
         d="M 8.7185878,4.0337352 L -2.2072895,0.016013256 L 8.7185884,-4.0017078 C 6.9730900,-1.6296469 6.9831476,1.6157441 8.7185878,4.0337352 z "
         transform="scale(1.1) translate(1,0)" />
    </marker>
    <marker
       orient="auto"
       refY="0.0"
       refX="0.0"
       id="marker3080"
       style="overflow:visible">
      <path
         id="path3078"
         style="fill-rule:evenodd;stroke-width:0.625;stroke-linejoin:round;stroke:#262a3e;stroke-opacity:1;fill:#4d4d4d;fill-opacity:1"
         d="M 8.7185878,4.0337352 L -2.2072895,0.016013256 L 8.7185884,-4.0017078 C 6.9730900,-1.6296469 6.9831476,1.6157441 8.7185878,4.0337352 z "
         transform="scale(1.1) translate(1,0)" />
    </marker>
    <marker
       orient="auto"
       refY="0.0"
       refX="0.0"
       id="marker3070"
       style="overflow:visible">
      <path
         id="path3068"
         style="fill-rule:evenodd;stroke-width:0.625;stroke-linejoin:round;stroke:#262a3e;stroke-opacity:1;fill:#4d4d4d;fill-opacity:1"
         d="M 8.7185878,4.0337352 L -2.2072895,0.016013256 L 8.7185884,-4.0017078 C 6.9730900,-1.6296469 6.9831476,1.6157441 8.7185878,4.0337352 z "
         transform="scale(1.1) translate(1,0)" />
    </marker>
    <marker
       orient="auto"
       refY="0.0"
       refX="0.0"
       id="marker2956"
       style="overflow:visible">
      <path
         id="path2954"
         d="M 0.0,0.0 L 5.0,-5.0 L -12.5,0.0 L 5.0,5.0 L 0.0,0.0 z "
         style="fill-rule:evenodd;stroke:#262a3e;stroke-width:1pt;stroke-opacity:1;fill:#4d4d4d;fill-opacity:1"
         transform="scale(0.8) translate(12.5,0)" />
    </marker>
    <marker
       orient="auto"
       refY="0.0"
       refX="0.0"
       id="marker2946"
       style="overflow:visible">
      <path
         id="path2944"
         d="M 0.0,0.0 L 5.0,-5.0 L -12.5,0.0 L 5.0,5.0 L 0.0,0.0 z "
         style="fill-rule:evenodd;stroke:#262a3e;stroke-width:1pt;stroke-opacity:1;fill:#4d4d4d;fill-opacity:1"
         transform="scale(0.8) translate(12.5,0)" />
    </marker>
    <marker
       orient="auto"
       refY="0.0"
       refX="0.0"
       id="marker2936"
       style="overflow:visible">
      <path
         id="path2934"
         d="M 0.0,0.0 L 5.0,-5.0 L -12.5,0.0 L 5.0,5.0 L 0.0,0.0 z "
         style="fill-rule:evenodd;stroke:#262a3e;stroke-width:1pt;stroke-opacity:1;fill:#4d4d4d;fill-opacity:1"
         transform="scale(0.8) translate(12.5,0)" />
    </marker>
    <marker
       orient="auto"
       refY="0.0"
       refX="0.0"
       id="marker2926"
       style="overflow:visible">
      <path
         id="path2924"
         d="M 0.0,0.0 L 5.0,-5.0 L -12.5,0.0 L 5.0,5.0 L 0.0,0.0 z "
         style="fill-rule:evenodd;stroke:#262a3e;stroke-width:1pt;stroke-opacity:1;fill:#4d4d4d;fill-opacity:1"
         transform="scale(0.8) translate(12.5,0)" />
    </marker>
    <marker
       orient="auto"
       refY="0.0"
       refX="0.0"
       id="marker2916"
       style="overflow:visible">
      <path
         id="path2914"
         d="M 0.0,0.0 L 5.0,-5.0 L -12.5,0.0 L 5.0,5.0 L 0.0,0.0 z "
         style="fill-rule:evenodd;stroke:#262a3e;stroke-width:1pt;stroke-opacity:1;fill:#4d4d4d;fill-opacity:1"
         transform="scale(0.8) translate(12.5,0)" />
    </marker>
    <marker
       orient="auto"
       refY="0.0"
       refX="0.0"
       id="marker2906"
       style="overflow:visible">
      <path
         id="path2904"
         d="M 0.0,0.0 L 5.0,-5.0 L -12.5,0.0 L 5.0,5.0 L 0.0,0.0 z "
         style="fill-rule:evenodd;stroke:#262a3e;stroke-width:1pt;stroke-opacity:1;fill:#4d4d4d;fill-opacity:1"
         transform="scale(0.8) translate(12.5,0)" />
    </marker>
    <marker
       orient="auto"
       refY="0.0"
       refX="0.0"
       id="marker2896"
       style="overflow:visible">
      <path
         id="path2894"
         d="M 0.0,0.0 L 5.0,-5.0 L -12.5,0.0 L 5.0,5.0 L 0.0,0.0 z "
         style="fill-rule:evenodd;stroke:#262a3e;stroke-width:1pt;stroke-opacity:1;fill:#4d4d4d;fill-opacity:1"
         transform="scale(0.8) translate(12.5,0)" />
    </marker>
    <marker
       orient="auto"
       refY="0.0"
       refX="0.0"
       id="marker2886"
       style="overflow:visible">
      <path
         id="path2884"
         d="M 0.0,0.0 L 5.0,-5.0 L -12.5,0.0 L 5.0,5.0 L 0.0,0.0 z "
         style="fill-rule:evenodd;stroke:#262a3e;stroke-width:1pt;stroke-opacity:1;fill:#4d4d4d;fill-opacity:1"
         transform="scale(0.8) translate(12.5,0)" />
    </marker>
    <marker
       orient="auto"
       refY="0.0"
       refX="0.0"
       id="marker2876"
       style="overflow:visible">
      <path
         id="path2874"
         d="M 0.0,0.0 L 5.0,-5.0 L -12.5,0.0 L 5.0,5.0 L 0.0,0.0 z "
         style="fill-rule:evenodd;stroke:#262a3e;stroke-width:1pt;stroke-opacity:1;fill:#4d4d4d;fill-opacity:1"
         transform="scale(0.8) translate(12.5,0)" />
    </marker>
    <marker
       orient="auto"
       refY="0.0"
       refX="0.0"
       id="marker2866"
       style="overflow:visible">
      <path
         id="path2864"
         d="M 0.0,0.0 L 5.0,-5.0 L -12.5,0.0 L 5.0,5.0 L 0.0,0.0 z "
         style="fill-rule:evenodd;stroke:#262a3e;stroke-width:1pt;stroke-opacity:1;fill:#4d4d4d;fill-opacity:1"
         transform="scale(0.8) translate(12.5,0)" />
    </marker>
    <marker
       orient="auto"
       refY="0.0"
       refX="0.0"
       id="marker2856"
       style="overflow:visible">
      <path
         id="path2854"
         d="M 0.0,0.0 L 5.0,-5.0 L -12.5,0.0 L 5.0,5.0 L 0.0,0.0 z "
         style="fill-rule:evenodd;stroke:#262a3e;stroke-width:1pt;stroke-opacity:1;fill:#4d4d4d;fill-opacity:1"
         transform="scale(0.8) translate(12.5,0)" />
    </marker>
  </defs>
  <metadata
     id="metadata1369">
    <rdf:RDF>
      <cc:Work
         rdf:about="">
        <dc:format>image/svg+xml</dc:format>
        <dc:type
           rdf:resource="http://purl.org/dc/dcmitype/StillImage" />
        <dc:title />
      </cc:Work>
    </rdf:RDF>
  </metadata>
  <g
     id="layer1">
    <rect
       y="1.1834673"
       x="-0.83683783"
       height="1091.4286"
       width="1931.4286"
       id="rect1955"
       style="opacity:0.5;fill:#00ffff;fill-opacity:1;stroke:none;stroke-width:0.1;stroke-miterlimit:4;stroke-dasharray:none" />
    <path
       id="path1961"
       d="M 162.85714,222.85715 C 162.85714,222.85715 260,94.285719 320,220 380,345.71429 248.57143,331.42858 237.14286,382.85715 225.71429,434.28572 194.28572,517.14286 234.28572,520 c 40,2.85715 0,-74.28571 42.85714,-122.85714 42.85714,-48.57143 100,-40 102.85714,-88.57143 C 382.85714,260 325.71429,125.71429 288.57143,114.28572 c -37.14286,-11.42857 -157.14286,28.57143 -160,51.42857 -2.85714,22.85714 40,54.28571 34.28571,57.14286 z"
       style="fill:#ff0000;stroke:#262a3e;stroke-width:1.00200105;stroke-linecap:butt;stroke-linejoin:round;stroke-opacity:1;opacity:1;stroke-miterlimit:4;stroke-dasharray:3.00600314, 1.00200105000000006;stroke-dashoffset:10.02001047" />
    <ellipse
       ry="30"
       rx="25.714285"
       cy="578.57141"
       cx="231.42857"
       id="path1965"
       style="opacity:1;fill:#ff0000;fill-opacity:1;stroke:#262a3e;stroke-width:0.1002001;stroke-miterlimit:4;stroke-dasharray:0.30060031, 0.10020010000000000;stroke-opacity:1;stroke-linejoin:round;stroke-dashoffset:1.00200102" />
    <path
       id="path1961-1"
       d="m 1400.0169,263.82712 c 0,0.001 20.6663,-164.618874 128.5714,-62.85715 101.3415,95.57183 -111.4285,128.57144 -122.8571,180.00001 -11.4286,51.42857 25.7142,140 65.7142,142.85714 40,2.85715 -68.5714,-80 -25.7142,-128.57143 78.0064,-33.50743 165.3097,-121.39787 151.4285,-177.14286 2.8572,-48.57143 -102.8571,-94.28572 -139.9999,-105.71429 -37.1429,-11.42857 -120,97.14286 -122.8571,120 0,0 71.4285,28.57143 65.7142,31.42858 z"
       style="fill:#4dfc4d;stroke:#262a3e;stroke-width:1.00200105;stroke-linecap:butt;stroke-linejoin:round;stroke-opacity:1;opacity:1;stroke-miterlimit:4;stroke-dasharray:3.00600314, 1.00200105000000006;stroke-dashoffset:10.02001047;fill-opacity:1" />
    <ellipse
       ry="30"
       rx="25.714285"
       cy="565.71423"
       cx="1517.1428"
       id="path1965-6"
       style="opacity:1;fill:#4dfc4d;fill-opacity:1;stroke:#262a3e;stroke-width:0.1002001;stroke-miterlimit:4;stroke-dasharray:0.30060031, 0.10020010000000000;stroke-opacity:1;stroke-linejoin:round;stroke-dashoffset:1.00200102" />
    <path
       id="path1961-4"
       d="m 805.44402,578.18589 c 0,0 104.21393,-155.84555 164.21393,-30.13127 59.99995,125.71429 -106.78391,117.4895 -118.21248,168.91807 -11.42857,51.42857 -32.75561,136.30602 7.24439,139.16316 40,2.85715 5.0998,-66.30208 32.75561,-124.87745 10.53226,-22.30746 79.76353,-42.8212 107.9079,-82.51051 45.54103,-64.22221 -23.2832,-192.77685 -98.49964,-190.24511 -38.83935,1.30731 -125.82812,69.98769 -128.68526,92.84483 -2.85714,22.85714 38.98984,23.98113 33.27555,26.83828 z"
       style="opacity:1;fill:#ff00ff;stroke:#262a3e;stroke-width:1.00200105;stroke-linecap:butt;stroke-linejoin:round;stroke-miterlimit:4;stroke-dasharray:3.00600314, 1.00200105000000006;stroke-dashoffset:10.02000999;stroke-opacity:1" />
    <ellipse
       ry="30"
       rx="25.714285"
       cy="912.68695"
       cx="864.92407"
       id="path1965-2"
       style="opacity:1;fill:#ff00ff;fill-opacity:1;stroke:#262a3e;stroke-width:0.1002001;stroke-linejoin:round;stroke-miterlimit:4;stroke-dasharray:0.30060031, 0.10020010000000000;stroke-dashoffset:1.00200105;stroke-opacity:1" />
    <path
       id="path1961-42"
       d="m 994.22585,213.52349 c 0,0 5.65804,-112.56631 45.39265,-33.10641 39.7347,79.45991 -74.57718,85.58267 -82.14571,118.08899 -7.56852,32.50632 91.82621,46.49182 118.31601,48.29773 26.4898,1.80591 -111.11674,-18.66931 -82.73491,-49.36973 28.38191,-30.70042 83.85671,-30.37233 86.29931,-61.03387 4.6139,-57.91832 -35.835,-116.73168 -60.548,-122.80167 -24.89643,-6.11505 -47.49844,70.587 -49.39056,85.03426 -1.89213,14.44725 28.59541,13.08479 24.81121,14.8907 z"
       style="opacity:1;fill:#ffff00;stroke:#262a3e;stroke-width:0.6482746;stroke-linecap:butt;stroke-linejoin:round;stroke-miterlimit:4;stroke-dasharray:1.9448238, 0.64827460000000003;stroke-dashoffset:6.48274612;stroke-opacity:1"
       inkscape:connector-curvature="0"
       sodipodi:nodetypes="cssscsssc" />
    <ellipse
       ry="18.962023"
       rx="17.029139"
       cy="351.50003"
       cx="1106.2216"
       id="path1965-9"
       style="opacity:1;fill:#ffff00;fill-opacity:1;stroke:#262a3e;stroke-width:0.06482746;stroke-linejoin:round;stroke-miterlimit:4;stroke-dasharray:0.19448237, 0.06482746000000000;stroke-dashoffset:0.64827454;stroke-opacity:1" />
    <path
       id="path1961-42-9"
       d="m 300.17742,798.92683 c 0,0 29.33228,-115.55152 69.06693,-36.09162 39.7347,79.45991 -53.01739,31.85895 -60.58592,64.36527 -7.56852,32.50632 -5.52474,92.02048 20.96505,93.82639 26.48983,1.80591 -22.14286,-54.81072 6.23897,-85.51114 28.3819,-30.70042 50.50073,4.1501 73.1166,-16.6974 53.76906,-49.56477 -5.19699,-126.76111 -60.548,-122.80167 -25.57112,1.82919 -104.06702,18.05907 -105.95914,32.50632 -1.89213,14.44726 61.48978,68.59794 57.70551,70.40385 z"
       style="fill:#000080;stroke:#262a3e;stroke-width:0.6482746;stroke-linecap:butt;stroke-linejoin:round;stroke-opacity:1;opacity:1;stroke-miterlimit:4;stroke-dasharray:1.9448238, 0.64827460000000003;stroke-dashoffset:6.48274601" />
    <ellipse
       ry="18.962023"
       rx="17.029139"
       cy="950.19086"
       cx="349.87411"
       id="path1965-9-3"
       style="opacity:1;fill:#000080;fill-opacity:1;stroke:#262a3e;stroke-width:0.06482746;stroke-miterlimit:4;stroke-dasharray:0.19448237, 0.06482746000000000;stroke-opacity:1;stroke-linejoin:round;stroke-dashoffset:0.64827457" />
    <path
       id="path1961-42-7"
       d="m 1433.7488,747.49826 c 10.9481,14.07619 56.5983,-52.00268 92.6384,0.33695 32.5297,47.24161 -44.446,59.00182 -52.0146,91.50814 -7.5685,32.50632 -12.6674,72.02048 13.8223,73.82639 26.4899,1.80591 -12.8572,-39.09644 15.5247,-69.79686 28.3819,-30.70042 41.0256,-21.95813 55.9738,-48.84026 17.0713,-30.70043 -18.8215,-89.14948 -52.6909,-96.37311 -24.5977,-7.22363 -80.935,17.46118 -82.8272,31.90844 -1.8921,14.44725 13.3578,15.6244 9.5735,17.43031 z"
       style="opacity:1;fill:#808000;stroke:#262a3e;stroke-width:0.6482746;stroke-linecap:butt;stroke-linejoin:round;stroke-miterlimit:4;stroke-dasharray:1.9448238, 0.64827460000000003;stroke-dashoffset:6.48274612;stroke-opacity:1" />
    <ellipse
       ry="18.962023"
       rx="17.029139"
       cy="948.04797"
       cx="1495.5884"
       id="path1965-9-5"
       style="opacity:1;fill:#808000;fill-opacity:1;stroke:#262a3e;stroke-width:0.06482746;stroke-linejoin:round;stroke-miterlimit:4;stroke-dasharray:0.19448237, 0.06482746000000000;stroke-dashoffset:0.64827454;stroke-opacity:1" />
    <path
       id="path1961-42-7-1"
       d="m 580.85829,201.58084 c 9.53265,12.92039 37.15904,-47.73271 68.53962,0.30928 28.32403,43.36258 -26.57788,54.15715 -33.16795,83.99436 -6.58999,29.83721 13.21399,47.92409 36.27891,49.58172 23.0651,1.65762 -35.43859,-17.70346 -10.7261,-45.88306 24.71248,-28.17959 19.55908,-18.13482 32.57467,-42.80965 14.8642,-28.1796 -0.22569,-83.84967 -29.71621,-90.48017 -21.41753,-6.63049 -70.47115,16.02744 -72.11871,29.28842 -1.64747,13.26098 11.63081,14.34148 8.33577,15.9991 z"
       style="opacity:1;fill:#00ffff;stroke:#262a3e;stroke-width:0.57955104;stroke-linecap:butt;stroke-linejoin:round;stroke-miterlimit:4;stroke-dasharray:1.73865309, 0.57955102999999997;stroke-dashoffset:6.48274612;stroke-opacity:1" />
    <ellipse
       ry="17.405041"
       rx="14.82749"
       cy="339.19629"
       cx="685.21045"
       id="path1965-9-5-3"
       style="opacity:1;fill:#00ffff;fill-opacity:1;stroke:#262a3e;stroke-width:0.0579551;stroke-linejoin:round;stroke-miterlimit:4;stroke-dasharray:0.1738653, 0.05795510000000000;stroke-dashoffset:0.64827454;stroke-opacity:1" />
  </g>
</svg>
