<svg xmlns="http://www.w3.org/2000/svg" viewBox="0 0 1920 1080" height="1080" width="1920"><style>  .a{fill:#4d4d4d;stroke-linejoin:round;stroke-width:0.6;stroke:#262a3e;}.b{fill:#4d4d4d;stroke-width:1pt;stroke:#262a3e;}</style><defs><marker orient="auto" refY="0.0" refX="0.0"><path d="M11.8 0L-1.4 0 11.8 0C9.7 0 9.7 0 11.8 0z" transform="scale(1.1)" class="a"/></marker><marker orient="auto" refY="0.0" refX="0.0"><path d="M11.8 0L-1.4 0 11.8 0C9.7 0 9.7 0 11.8 0z" transform="scale(1.1)" class="a"/></marker><marker orient="auto" refY="0.0" refX="0.0"><path d="M11.8 0L-1.4 0 11.8 0C9.7 0 9.7 0 11.8 0z" transform="scale(1.1)" class="a"/></marker><marker orient="auto" refY="0.0" refX="0.0"><path d="M11.8 0L-1.4 0 11.8 0C9.7 0 9.7 0 11.8 0z" transform="scale(1.1)" class="a"/></marker><marker orient="auto" refY="0.0" refX="0.0"><path d="M11.8 0L-1.4 0 11.8 0C9.7 0 9.7 0 11.8 0z" transform="scale(1.1)" class="a"/></marker><marker orient="auto" refY="0.0" refX="0.0"><path d="M11.8 0L-1.4 0 11.8 0C9.7 0 9.7 0 11.8 0z" transform="scale(1.1)" class="a"/></marker><marker orient="auto" refY="0.0" refX="0.0"><path d="M11.8 0L-1.4 0 11.8 0C9.7 0 9.7 0 11.8 0z" transform="scale(1.1)" class="a"/></marker><marker orient="auto" refY="0.0" refX="0.0"><path d="M11.8 0L-1.4 0 11.8 0C9.7 0 9.7 0 11.8 0z" transform="scale(1.1)" class="a"/></marker><marker orient="auto" refY="0.0" refX="0.0"><path d="M11.8 0L-1.4 0 11.8 0C9.7 0 9.7 0 11.8 0z" transform="scale(1.1)" class="a"/></marker><marker orient="auto" refY="0.0" refX="0.0"><path d="M11.8 0L-1.4 0 11.8 0C9.7 0 9.7 0 11.8 0z" transform="scale(1.1)" class="a"/></marker><marker orient="auto" refY="0.0" refX="0.0"><path d="M11.8 0L-1.4 0 11.8 0C9.7 0 9.7 0 11.8 0z" transform="scale(1.1)" class="a"/></marker><marker orient="auto" refY="0.0" refX="0.0"><path d="M8 0L11.2 0 0 0 11.2 0 8 0z" transform="scale(0.8)" class="b"/></marker><marker orient="auto" refY="0.0" refX="0.0"><path d="M8 0L11.2 0 0 0 11.2 0 8 0z" transform="scale(0.8)" class="b"/></marker><marker orient="auto" refY="0.0" refX="0.0"><path d="M8 0L11.2 0 0 0 11.2 0 8 0z" transform="scale(0.8)" class="b"/></marker><marker orient="auto" refY="0.0" refX="0.0"><path d="M8 0L11.2 0 0 0 11.2 0 8 0z" transform="scale(0.8)" class="b"/></marker><marker orient="auto" refY="0.0" refX="0.0"><path d="M8 0L11.2 0 0 0 11.2 0 8 0z" transform="scale(0.8)" class="b"/></marker><marker orient="auto" refY="0.0" refX="0.0"><path d="M8 0L11.2 0 0 0 11.2 0 8 0z" transform="scale(0.8)" class="b"/></marker><marker orient="auto" refY="0.0" refX="0.0"><path d="M8 0L11.2 0 0 0 11.2 0 8 0z" transform="scale(0.8)" class="b"/></marker><marker orient="auto" refY="0.0" refX="0.0"><path d="M8 0L11.2 0 0 0 11.2 0 8 0z" transform="scale(0.8)" class="b"/></marker><marker orient="auto" refY="0.0" refX="0.0"><path d="M8 0L11.2 0 0 0 11.2 0 8 0z" transform="scale(0.8)" class="b"/></marker><marker orient="auto" refY="0.0" refX="0.0"><path d="M8 0L11.2 0 0 0 11.2 0 8 0z" transform="scale(0.8)" class="b"/></marker><marker orient="auto" refY="0.0" refX="0.0"><path d="M8 0L11.2 0 0 0 11.2 0 8 0z" transform="scale(0.8)" class="b"/></marker></defs><rect y="1.2" x="-0.8" height="1091.4" width="1931.4" style="fill:#0ff;opacity:0.5;stroke-width:0.1"/><path d="M162.9 222.9C162.9 222.9 260 94.3 320 220 380 345.7 248.6 331.4 237.1 382.9 225.7 434.3 194.3 517.1 234.3 520c40 2.9 0-74.3 42.9-122.9 42.9-48.6 100-40 102.9-88.6C382.9 260 325.7 125.7 288.6 114.3c-37.1-11.4-157.1 28.6-160 51.4-2.9 22.9 40 54.3 34.3 57.1z" style="fill:#f00;stroke-dasharray:3;stroke-dashoffset:10;stroke-linejoin:round"/><ellipse ry="30" rx="25.7" cy="578.6" cx="231.4" style="fill:#f00;stroke-dasharray:0.3;stroke-dashoffset:1;stroke-linejoin:round;stroke-width:0.1;stroke:#262a3e"/><path d="m1400 263.8c0 0 20.7-164.6 128.6-62.9 101.3 95.6-111.4 128.6-122.9 180-11.4 51.4 25.7 140 65.7 142.9 40 2.9-68.6-80-25.7-128.6 78-33.5 165.3-121.4 151.4-177.1 2.9-48.6-102.9-94.3-140-105.7-37.1-11.4-120 97.1-122.9 120 0 0 71.4 28.6 65.7 31.4z" style="fill:#4dfc4d;stroke-dasharray:3;stroke-dashoffset:10;stroke-linejoin:round"/><ellipse ry="30" rx="25.7" cy="565.7" cx="1517.1" style="fill:#4dfc4d;stroke-dasharray:0.3;stroke-dashoffset:1;stroke-linejoin:round;stroke-width:0.1;stroke:#262a3e"/><path d="m805.4 578.2c0 0 104.2-155.8 164.2-30.1 60 125.7-106.8 117.5-118.2 168.9-11.4 51.4-32.8 136.3 7.2 139.2 40 2.9 5.1-66.3 32.8-124.9 10.5-22.3 79.8-42.8 107.9-82.5 45.5-64.2-23.3-192.8-98.5-190.2-38.8 1.3-125.8 70-128.7 92.8-2.9 22.9 39 24 33.3 26.8z" style="fill:#f0f;stroke-dasharray:3;stroke-dashoffset:10;stroke-linejoin:round"/><ellipse ry="30" rx="25.7" cy="912.7" cx="864.9" style="fill:#f0f;stroke-dasharray:0.3;stroke-dashoffset:1;stroke-linejoin:round;stroke-width:0.1;stroke:#262a3e"/><path d="m994.2 213.5c0 0 5.7-112.6 45.4-33.1 39.7 79.5-74.6 85.6-82.1 118.1-7.6 32.5 91.8 46.5 118.3 48.3 26.5 1.8-111.1-18.7-82.7-49.4 28.4-30.7 83.9-30.4 86.3-61 4.6-57.9-35.8-116.7-60.5-122.8-24.9-6.1-47.5 70.6-49.4 85-1.9 14.4 28.6 13.1 24.8 14.9z" style="fill:#ff0;stroke-dasharray:2;stroke-dashoffset:6;stroke-linejoin:round;stroke-width:0.6"/><ellipse ry="19" rx="17" cy="351.5" cx="1106.2" style="fill:#ff0;stroke-dasharray:0.2;stroke-dashoffset:0.6;stroke-linejoin:round;stroke-width:0.06;stroke:#262a3e"/><path d="m300.2 798.9c0 0 29.3-115.6 69.1-36.1 39.7 79.5-53 31.9-60.6 64.4-7.6 32.5-5.5 92 21 93.8 26.5 1.8-22.1-54.8 6.2-85.5 28.4-30.7 50.5 4.2 73.1-16.7 53.8-49.6-5.2-126.8-60.5-122.8-25.6 1.8-104.1 18.1-106 32.5-1.9 14.4 61.5 68.6 57.7 70.4z" style="fill:#000080;stroke-dasharray:2;stroke-dashoffset:6;stroke-linejoin:round;stroke-width:0.6"/><ellipse ry="19" rx="17" cy="950.2" cx="349.9" style="fill:#000080;stroke-dasharray:0.2;stroke-dashoffset:0.6;stroke-linejoin:round;stroke-width:0.06;stroke:#262a3e"/><path d="m1433.7 747.5c10.9 14.1 56.6-52 92.6 0.3 32.5 47.2-44.4 59-52 91.5-7.6 32.5-12.7 72 13.8 73.8 26.5 1.8-12.9-39.1 15.5-69.8 28.4-30.7 41-22 56-48.8 17.1-30.7-18.8-89.1-52.7-96.4-24.6-7.2-80.9 17.5-82.8 31.9-1.9 14.4 13.4 15.6 9.6 17.4z" style="fill:#808000;stroke-dasharray:2;stroke-dashoffset:6;stroke-linejoin:round;stroke-width:0.6"/><ellipse ry="19" rx="17" cy="948" cx="1495.6" style="fill:#808000;stroke-dasharray:0.2;stroke-dashoffset:0.6;stroke-linejoin:round;stroke-width:0.06;stroke:#262a3e"/><path d="m580.9 201.6c9.5 12.9 37.2-47.7 68.5 0.3 28.3 43.4-26.6 54.2-33.2 84-6.6 29.8 13.2 47.9 36.3 49.6 23.1 1.7-35.4-17.7-10.7-45.9 24.7-28.2 19.6-18.1 32.6-42.8 14.9-28.2-0.2-83.8-29.7-90.5-21.4-6.6-70.5 16-72.1 29.3-1.6 13.3 11.6 14.3 8.3 16z" style="fill:#0ff;stroke-dasharray:2;stroke-dashoffset:6;stroke-linejoin:round;stroke-width:0.6"/><ellipse ry="17.4" rx="14.8" cy="339.2" cx="685.2" style="fill:#0ff;stroke-dasharray:0.2;stroke-dashoffset:0.6;stroke-linejoin:round;stroke-width:0.06;stroke:#262a3e"/></svg>